<svg xmlns="http://www.w3.org/2000/svg" width="640" height="528" viewBox="0 0 640 528" font-family="system-ui, -apple-system, Segoe UI, Roboto, sans-serif">
<rect width="640" height="528" fill="#ffffff"/>
<text x="64" y="24" font-size="15" font-weight="600" fill="#222222">Batch-size sweep — gemini-3.1-flash-lite</text>
<text x="64" y="42" font-size="12" font-weight="600" fill="#222222">Accuracy</text>
<line x1="64" y1="48" x2="616" y2="48" stroke="#e5e5e5"/>
<line x1="64" y1="168" x2="616" y2="168" stroke="#e5e5e5"/>
<text x="56" y="52" font-size="10" text-anchor="end" fill="#222222">100%</text>
<text x="56" y="172" font-size="10" text-anchor="end" fill="#222222">0</text>
<polyline points="64.0,56.0 91.9,54.0 126.9,52.0 196.8,53.0 336.5,58.0 616.0,56.0" fill="none" stroke="#0072B2" stroke-width="2"/>
<circle cx="64.0" cy="56.0" r="3.5" fill="#0072B2"/>
<circle cx="91.9" cy="54.0" r="3.5" fill="#0072B2"/>
<circle cx="126.9" cy="52.0" r="3.5" fill="#0072B2"/>
<circle cx="196.8" cy="53.0" r="3.5" fill="#0072B2"/>
<circle cx="336.5" cy="58.0" r="3.5" fill="#0072B2"/>
<circle cx="616.0" cy="56.0" r="3.5" fill="#0072B2"/>
<text x="64" y="202" font-size="12" font-weight="600" fill="#222222">Cost (USD)</text>
<line x1="64" y1="208" x2="616" y2="208" stroke="#e5e5e5"/>
<line x1="64" y1="328" x2="616" y2="328" stroke="#e5e5e5"/>
<text x="56" y="212" font-size="10" text-anchor="end" fill="#222222">$0.0200</text>
<text x="56" y="332" font-size="10" text-anchor="end" fill="#222222">0</text>
<polyline points="64.0,226.4 91.9,220.3 126.9,221.7 196.8,222.4 336.5,222.5 616.0,228.1" fill="none" stroke="#0072B2" stroke-width="2"/>
<circle cx="64.0" cy="226.4" r="3.5" fill="#0072B2"/>
<circle cx="91.9" cy="220.3" r="3.5" fill="#0072B2"/>
<circle cx="126.9" cy="221.7" r="3.5" fill="#0072B2"/>
<circle cx="196.8" cy="222.4" r="3.5" fill="#0072B2"/>
<circle cx="336.5" cy="222.5" r="3.5" fill="#0072B2"/>
<circle cx="616.0" cy="228.1" r="3.5" fill="#0072B2"/>
<text x="64" y="362" font-size="12" font-weight="600" fill="#222222">Time (s)</text>
<line x1="64" y1="368" x2="616" y2="368" stroke="#e5e5e5"/>
<line x1="64" y1="488" x2="616" y2="488" stroke="#e5e5e5"/>
<text x="56" y="372" font-size="10" text-anchor="end" fill="#222222">100s</text>
<text x="56" y="492" font-size="10" text-anchor="end" fill="#222222">0</text>
<polyline points="64.0,370.7 91.9,435.5 126.9,474.1 196.8,476.6 336.5,478.8 616.0,476.9" fill="none" stroke="#0072B2" stroke-width="2"/>
<circle cx="64.0" cy="370.7" r="3.5" fill="#0072B2"/>
<circle cx="91.9" cy="435.5" r="3.5" fill="#0072B2"/>
<circle cx="126.9" cy="474.1" r="3.5" fill="#0072B2"/>
<circle cx="196.8" cy="476.6" r="3.5" fill="#0072B2"/>
<circle cx="336.5" cy="478.8" r="3.5" fill="#0072B2"/>
<circle cx="616.0" cy="476.9" r="3.5" fill="#0072B2"/>
<text x="64.0" y="508" font-size="11" text-anchor="middle" fill="#222222">1</text>
<text x="91.9" y="508" font-size="11" text-anchor="middle" fill="#222222">5</text>
<text x="126.9" y="508" font-size="11" text-anchor="middle" fill="#222222">10</text>
<text x="196.8" y="508" font-size="11" text-anchor="middle" fill="#222222">20</text>
<text x="336.5" y="508" font-size="11" text-anchor="middle" fill="#222222">40</text>
<text x="616.0" y="508" font-size="11" text-anchor="middle" fill="#222222">80</text>
<text x="340" y="528" font-size="12" text-anchor="middle" fill="#222222">Batch size (rows per model call)</text>
</svg>