<svg xmlns="http://www.w3.org/2000/svg" viewBox="0 0 1000 1000" width="1000" height="1000" shape-rendering="crispEdges"><rect x="0" y="0" width="1000" height="1000" fill="#281C60"></rect><g transform="translate(80 266.6666666666667) scale(0.9333333333333333)"><rect x="0" y="0" width="100" height="100" fill="#FFFFFF"></rect><rect x="100" y="0" width="100" height="100" fill="#FFFFFF"></rect><rect x="200" y="0" width="100" height="100" fill="#FFFFFF"></rect><rect x="300" y="0" width="100" height="100" fill="#FFFFFF"></rect><rect x="400" y="0" width="100" height="100" fill="#96BED7"></rect><rect x="500" y="0" width="100" height="100" fill="#FFFFFF"></rect><rect x="600" y="0" width="100" height="100" fill="#FFFFFF"></rect><rect x="700" y="0" width="100" height="100" fill="#FFFFFF"></rect><rect x="800" y="0" width="100" height="100" fill="#FFFFFF"></rect><rect x="0" y="100" width="100" height="100" fill="#281C60"></rect><rect x="100" y="100" width="100" height="100" fill="#FFFFFF"></rect><rect x="200" y="100" width="100" height="100" fill="#281C60"></rect><rect x="300" y="100" width="100" height="100" fill="#281C60"></rect><rect x="400" y="100" width="100" height="100" fill="#281C60"></rect><rect x="500" y="100" width="100" height="100" fill="#281C60"></rect><rect x="600" y="100" width="100" height="100" fill="#281C60"></rect><rect x="700" y="100" width="100" height="100" fill="#FFFFFF"></rect><rect x="800" y="100" width="100" height="100" fill="#281C60"></rect><rect x="0" y="200" width="100" height="100" fill="#281C60"></rect><rect x="100" y="200" width="100" height="100" fill="#FFFFFF"></rect><rect x="200" y="200" width="100" height="100" fill="#281C60"></rect><rect x="300" y="200" width="100" height="100" fill="#FFFFFF"></rect><rect x="400" y="200" width="100" height="100" fill="#FFFFFF"></rect><rect x="500" y="200" width="100" height="100" fill="#FFFFFF"></rect><rect x="600" y="200" width="100" height="100" fill="#281C60"></rect><rect x="700" y="200" width="100" height="100" fill="#FFFFFF"></rect><rect x="800" y="200" width="100" height="100" fill="#281C60"></rect><rect x="0" y="300" width="100" height="100" fill="#281C60"></rect><rect x="100" y="300" width="100" height="100" fill="#FFFFFF"></rect><rect x="200" y="300" width="100" height="100" fill="#281C60"></rect><rect x="300" y="300" width="100" height="100" fill="#281C60"></rect><rect x="400" y="300" width="100" height="100" fill="#281C60"></rect><rect x="500" y="300" width="100" height="100" fill="#281C60"></rect><rect x="600" y="300" width="100" height="100" fill="#281C60"></rect><rect x="700" y="300" width="100" height="100" fill="#FFFFFF"></rect><rect x="800" y="300" width="100" height="100" fill="#281C60"></rect><rect x="0" y="400" width="100" height="100" fill="#281C60"></rect><rect x="100" y="400" width="100" height="100" fill="#FFFFFF"></rect><rect x="200" y="400" width="100" height="100" fill="#281C60"></rect><rect x="300" y="400" width="100" height="100" fill="#FFFFFF"></rect><rect x="400" y="400" width="100" height="100" fill="#FFFFFF"></rect><rect x="500" y="400" width="100" height="100" fill="#FFFFFF"></rect><rect x="600" y="400" width="100" height="100" fill="#281C60"></rect><rect x="700" y="400" width="100" height="100" fill="#FFFFFF"></rect><rect x="800" y="400" width="100" height="100" fill="#281C60"></rect></g></svg>