<svg xmlns="http://www.w3.org/2000/svg" viewBox="0 0 1000 1000" width="1000" height="1000" shape-rendering="crispEdges"><rect x="0" y="0" width="1000" height="1000" fill="#FFFFFF"></rect><g transform="translate(80 265.8407079646018) scale(0.9292035398230089)"><rect x="0" y="0" width="904" height="504" fill="#DCDCDC"></rect><rect x="4" y="4" width="96" height="96" fill="#281C60"></rect><rect x="104" y="4" width="96" height="96" fill="#281C60"></rect><rect x="204" y="4" width="96" height="96" fill="#281C60"></rect><rect x="304" y="4" width="96" height="96" fill="#281C60"></rect><rect x="404" y="4" width="96" height="96" fill="#96BED7"></rect><rect x="504" y="4" width="96" height="96" fill="#281C60"></rect><rect x="604" y="4" width="96" height="96" fill="#281C60"></rect><rect x="704" y="4" width="96" height="96" fill="#281C60"></rect><rect x="804" y="4" width="96" height="96" fill="#281C60"></rect><rect x="4" y="104" width="96" height="96" fill="#FFFFFF"></rect><rect x="104" y="104" width="96" height="96" fill="#281C60"></rect><rect x="204" y="104" width="96" height="96" fill="#FFFFFF"></rect><rect x="304" y="104" width="96" height="96" fill="#FFFFFF"></rect><rect x="404" y="104" width="96" height="96" fill="#FFFFFF"></rect><rect x="504" y="104" width="96" height="96" fill="#FFFFFF"></rect><rect x="604" y="104" width="96" height="96" fill="#FFFFFF"></rect><rect x="704" y="104" width="96" height="96" fill="#281C60"></rect><rect x="804" y="104" width="96" height="96" fill="#FFFFFF"></rect><rect x="4" y="204" width="96" height="96" fill="#FFFFFF"></rect><rect x="104" y="204" width="96" height="96" fill="#281C60"></rect><rect x="204" y="204" width="96" height="96" fill="#FFFFFF"></rect><rect x="304" y="204" width="96" height="96" fill="#281C60"></rect><rect x="404" y="204" width="96" height="96" fill="#281C60"></rect><rect x="504" y="204" width="96" height="96" fill="#281C60"></rect><rect x="604" y="204" width="96" height="96" fill="#FFFFFF"></rect><rect x="704" y="204" width="96" height="96" fill="#281C60"></rect><rect x="804" y="204" width="96" height="96" fill="#FFFFFF"></rect><rect x="4" y="304" width="96" height="96" fill="#FFFFFF"></rect><rect x="104" y="304" width="96" height="96" fill="#281C60"></rect><rect x="204" y="304" width="96" height="96" fill="#FFFFFF"></rect><rect x="304" y="304" width="96" height="96" fill="#FFFFFF"></rect><rect x="404" y="304" width="96" height="96" fill="#FFFFFF"></rect><rect x="504" y="304" width="96" height="96" fill="#FFFFFF"></rect><rect x="604" y="304" width="96" height="96" fill="#FFFFFF"></rect><rect x="704" y="304" width="96" height="96" fill="#281C60"></rect><rect x="804" y="304" width="96" height="96" fill="#FFFFFF"></rect><rect x="4" y="404" width="96" height="96" fill="#FFFFFF"></rect><rect x="104" y="404" width="96" height="96" fill="#281C60"></rect><rect x="204" y="404" width="96" height="96" fill="#FFFFFF"></rect><rect x="304" y="404" width="96" height="96" fill="#281C60"></rect><rect x="404" y="404" width="96" height="96" fill="#281C60"></rect><rect x="504" y="404" width="96" height="96" fill="#281C60"></rect><rect x="604" y="404" width="96" height="96" fill="#FFFFFF"></rect><rect x="704" y="404" width="96" height="96" fill="#281C60"></rect><rect x="804" y="404" width="96" height="96" fill="#FFFFFF"></rect></g></svg>