<svg xmlns="http://www.w3.org/2000/svg" viewBox="0 0 360 230" width="360" height="230" font-family="Inter, ui-sans-serif, system-ui, sans-serif">
  <!-- TamedTable feature illustration: Flag impossible dates — "flag any impossible birth date" -->
  <rect x="2" y="2" width="356" height="226" rx="16" fill="#FFFFFF" stroke="#DCDCDC"/>
  <rect x="18" y="18" width="324" height="36" rx="18" fill="#EFEBF7" stroke="#D8D0EC"/>
  <circle cx="40" cy="36" r="7" fill="#96BED7"/>
  <path d="M37.5 32.5 L43.5 36 L37.5 39.5 Z" fill="#281C60"/>
  <text x="56" y="41" font-family="JetBrains Mono, ui-monospace, monospace" font-size="13" fill="#281C60">flag any impossible birth date</text>
  <g>
    <path d="M18 78 q0 -6 6 -6 h312 q6 0 6 6 v24 h-324 Z" fill="#281C60"/>
    <text x="32" y="91" font-size="12" font-weight="600" fill="#FFFFFF">name</text>
    <text x="150" y="91" font-size="12" font-weight="600" fill="#FFFFFF">DOB</text>
    <text x="300" y="91" font-size="12" font-weight="600" fill="#96BED7">flag</text>
    <g font-size="12">
      <rect x="18" y="104" width="324" height="32" fill="#FFFFFF"/>
      <text x="32" y="124" fill="#281C60">Mia Khan</text>
      <text x="150" y="124" font-family="JetBrains Mono, ui-monospace, monospace" font-size="11" fill="#281C60">1990-04-12</text>
      <rect x="296" y="108" width="36" height="20" rx="10" fill="#96BED7"/>
      <text x="305" y="122" font-size="11" font-weight="600" fill="#281C60">ok</text>
      <!-- bad row -->
      <rect x="18" y="136" width="324" height="32" fill="#FBEEF0"/>
      <text x="32" y="156" fill="#281C60">Sam Lee</text>
      <rect x="148" y="141" width="96" height="22" rx="5" fill="#FFFFFF" stroke="#E0AAB6" stroke-dasharray="3 3"/>
      <text x="158" y="156" font-family="JetBrains Mono, ui-monospace, monospace" font-size="11" fill="#C0556B">1873-01-01</text>
      <rect x="294" y="142" width="40" height="20" rx="10" fill="#C0556B"/>
      <text x="303" y="156" font-size="11" font-weight="600" fill="#FFFFFF">bad</text>
      <rect x="18" y="168" width="324" height="32" fill="#FFFFFF"/>
      <text x="32" y="188" fill="#281C60">Tom Reed</text>
      <text x="150" y="188" font-family="JetBrains Mono, ui-monospace, monospace" font-size="11" fill="#281C60">2001-11-30</text>
      <rect x="296" y="172" width="36" height="20" rx="10" fill="#96BED7"/>
      <text x="305" y="186" font-size="11" font-weight="600" fill="#281C60">ok</text>
    </g>
    <rect x="18" y="72" width="324" height="128" rx="6" fill="none" stroke="#DCDCDC"/>
  </g>
</svg>
