<svg xmlns="http://www.w3.org/2000/svg" viewBox="0 0 360 230" width="360" height="230" font-family="Inter, ui-sans-serif, system-ui, sans-serif">
  <!-- TamedTable feature illustration: One-line summary — "summarize each review in one line" -->
  <rect x="2" y="2" width="356" height="226" rx="16" fill="#FFFFFF" stroke="#DCDCDC"/>
  <rect x="18" y="18" width="324" height="36" rx="18" fill="#EFEBF7" stroke="#D8D0EC"/>
  <circle cx="40" cy="36" r="7" fill="#96BED7"/>
  <path d="M37.5 32.5 L43.5 36 L37.5 39.5 Z" fill="#281C60"/>
  <text x="56" y="41" font-family="JetBrains Mono, ui-monospace, monospace" font-size="13" fill="#281C60">summarize each review in one line</text>
  <g>
    <path d="M18 78 q0 -6 6 -6 h312 q6 0 6 6 v24 h-324 Z" fill="#281C60"/>
    <text x="32" y="91" font-size="12" font-weight="600" fill="#FFFFFF">review</text>
    <text x="204" y="91" font-size="12" font-weight="600" fill="#FFFFFF">summary</text>
    <g fill="#281C60">
      <rect x="18" y="104" width="324" height="34" fill="#FFFFFF"/>
      <rect x="18" y="138" width="324" height="34" fill="#F6F2EB"/>
      <rect x="18" y="172" width="324" height="34" fill="#FFFFFF"/>
      <rect x="194" y="109" width="140" height="92" rx="5" fill="#E7F1F8" stroke="#96BED7"/>
      <g font-size="10">
        <text x="32" y="125">Arrived late, box crushed …</text>
        <text x="32" y="159">Battery dies in an hour …</text>
        <text x="32" y="193">Comfy shoes, true to size …</text>
      </g>
      <g font-size="11">
        <text x="204" y="125">Late delivery, fine</text>
        <text x="204" y="159">Poor battery life</text>
        <text x="204" y="193">Great fit, fast ship</text>
      </g>
    </g>
    <rect x="18" y="72" width="324" height="134" rx="6" fill="none" stroke="#DCDCDC"/>
  </g>
</svg>
